<svg width="220" height="26" viewBox="0 0 220 26" fill="none" xmlns="http://www.w3.org/2000/svg"><path d="M41.1051 21.4517C41.6939 21.3928 42.1503 21.3192 42.4743 21.2309C42.7979 21.1278 43.0333 20.9807 43.1807 20.7893C43.3426 20.5832 43.4382 20.3109 43.4676 19.9724C43.5118 19.6338 43.5338 19.1849 43.5338 18.6255V6.57027H42.9818C42.2018 6.57027 41.5321 6.67328 40.9727 6.87937C40.4134 7.07072 39.9202 7.37982 39.4936 7.80668C39.0666 8.21883 38.6911 8.74873 38.3675 9.3964C38.0582 10.0293 37.764 10.7874 37.4842 11.6706H37.0425L37.7052 5.77539C38.5587 5.80485 39.4565 5.82691 40.3987 5.84162C41.3556 5.84162 42.2165 5.84162 42.9818 5.84162H47.0886C47.8542 5.84162 48.7078 5.84162 49.65 5.84162C50.6066 5.82691 51.5194 5.80485 52.3876 5.77539L53.05 11.6706H52.5866C52.3214 10.7874 52.0272 10.0293 51.7032 9.3964C51.3943 8.74873 51.0262 8.21883 50.5992 7.80668C50.1723 7.37982 49.6721 7.07072 49.098 6.87937C48.5387 6.67328 47.8763 6.57027 47.1107 6.57027H46.5586V18.6255C46.5586 19.1849 46.5734 19.6338 46.6028 19.9724C46.6473 20.3109 46.7429 20.5832 46.89 20.7893C47.0518 20.9807 47.2949 21.1278 47.6185 21.2309C47.9425 21.3192 48.3989 21.3928 48.9873 21.4517V21.8491H41.1051V21.4517Z" fill="black"></path><path d="M57.4693 11.9354C57.69 11.6557 57.911 11.3834 58.1317 11.1184C58.3674 10.8535 58.6175 10.6254 58.8823 10.434C59.1621 10.2279 59.4711 10.066 59.8098 9.94824C60.1485 9.83048 60.5383 9.7716 60.98 9.7716C61.4511 9.7716 61.8851 9.85258 62.2826 10.0145C62.6948 10.1764 63.0479 10.434 63.3425 10.7872C63.6514 11.1258 63.8945 11.56 64.071 12.0899C64.2476 12.6198 64.3362 13.2454 64.3362 13.9667V18.6696C64.3362 19.2436 64.3435 19.6999 64.3582 20.0385C64.3876 20.377 64.4538 20.642 64.5568 20.8333C64.6745 21.0247 64.851 21.1645 65.0868 21.2528C65.3221 21.3412 65.6608 21.4074 66.1025 21.4516V21.849H60.0084V21.4516C60.3912 21.4074 60.6854 21.3412 60.8917 21.2528C61.0977 21.1645 61.2521 21.0247 61.3555 20.8333C61.4584 20.642 61.5173 20.377 61.532 20.0385C61.5467 19.6999 61.5541 19.2436 61.5541 18.6696V14.4966C61.5541 12.5978 60.8697 11.6484 59.5005 11.6484C59.0739 11.6484 58.6763 11.7293 58.3082 11.8912C57.9552 12.0384 57.6753 12.2592 57.4693 12.5536V18.6696C57.4693 19.2436 57.4767 19.6999 57.4914 20.0385C57.5061 20.377 57.565 20.642 57.6679 20.8333C57.7713 21.0247 57.9257 21.1645 58.1317 21.2528C58.338 21.3412 58.6322 21.4074 59.015 21.4516V21.849H52.9209V21.4516C53.3626 21.4074 53.7013 21.3412 53.9366 21.2528C54.1724 21.1645 54.3415 21.0247 54.4445 20.8333C54.5622 20.642 54.6284 20.377 54.6431 20.0385C54.6725 19.6999 54.6872 19.2436 54.6872 18.6696V7.65201C54.6872 7.13682 54.6725 6.73938 54.6431 6.45973C54.6137 6.18005 54.5328 5.97399 54.4004 5.84149C54.2827 5.70902 54.1058 5.62808 53.8704 5.59862C53.6351 5.5692 53.3184 5.5471 52.9209 5.53239V5.15705L57.5355 3.67773C57.5208 4.26652 57.5061 4.9436 57.4914 5.70902C57.4767 6.47444 57.4693 7.42385 57.4693 8.55725V11.9354Z" fill="black"></path><path d="M71.426 22.1359C70.5577 22.1359 69.7847 21.9887 69.1076 21.6943C68.4306 21.3999 67.8639 20.9878 67.4075 20.4579C66.9514 19.928 66.6054 19.3024 66.37 18.5811C66.1343 17.8452 66.0166 17.0503 66.0166 16.1966C66.0166 15.3281 66.1637 14.5038 66.4583 13.7237C66.7525 12.9436 67.15 12.2664 67.6506 11.6924C68.1658 11.1036 68.7546 10.6399 69.4169 10.3014C70.094 9.94812 70.8151 9.77148 71.5805 9.77148C72.2431 9.77148 72.854 9.87453 73.4134 10.0806C73.9874 10.2867 74.4802 10.5884 74.8925 10.9859C75.3195 11.3833 75.6578 11.8838 75.9082 12.4872C76.173 13.076 76.3275 13.7605 76.372 14.5406H68.4894V14.7172C68.4894 15.6151 68.5998 16.3953 68.8208 17.0577C69.0561 17.72 69.3654 18.272 69.7479 18.7136C70.1307 19.1405 70.5798 19.4643 71.095 19.6851C71.6249 19.8911 72.1916 19.9942 72.7951 19.9942C73.5458 19.9942 74.2007 19.8764 74.7601 19.6409C75.3342 19.3907 75.7979 19.0816 76.151 18.7136L76.4161 18.9344C76.2245 19.2582 75.9818 19.6115 75.6872 19.9942C75.393 20.3622 75.0396 20.7081 74.6277 21.0319C74.2302 21.341 73.7591 21.606 73.2144 21.8268C72.6845 22.0328 72.0883 22.1359 71.426 22.1359ZM71.2495 10.6326C70.4547 10.6326 69.8292 10.9049 69.3728 11.4495C68.9311 11.9942 68.6516 12.7301 68.5336 13.6575H73.5899C73.5458 12.5976 73.3027 11.8322 72.8613 11.3612C72.4344 10.8755 71.8971 10.6326 71.2495 10.6326Z" fill="black"></path><path d="M94.7176 9.06537C94.7176 8.49133 94.7029 8.03501 94.6734 7.69645C94.644 7.35792 94.5557 7.09295 94.4086 6.90161C94.2759 6.71026 94.0626 6.57044 93.7684 6.4821C93.4738 6.3938 93.0615 6.31282 92.5319 6.23923V5.8418H97.9413V6.23923C97.4114 6.31282 96.9991 6.3938 96.7049 6.4821C96.4104 6.57044 96.1897 6.71026 96.0422 6.90161C95.9098 7.09295 95.8289 7.35792 95.7995 7.69645C95.7701 8.03501 95.7554 8.49133 95.7554 9.06537V21.8493H93.9008L84.4949 9.68361V18.6257C84.4949 19.1998 84.5096 19.6561 84.5391 19.9946C84.5685 20.3332 84.6494 20.5981 84.7821 20.7895C84.9292 20.9808 85.1499 21.128 85.4445 21.2311C85.7387 21.3194 86.1509 21.393 86.6809 21.4519V21.8493H81.2715V21.4519C81.8014 21.393 82.2133 21.3194 82.5079 21.2311C82.8021 21.128 83.0158 20.9808 83.1482 20.7895C83.2953 20.5981 83.3836 20.3332 83.413 19.9946C83.4424 19.6561 83.4571 19.1998 83.4571 18.6257V8.33676L83.082 7.85102C82.6991 7.33582 82.3752 6.96049 82.1104 6.72497C81.8603 6.47475 81.5804 6.29076 81.2715 6.173V5.8418H85.3783L94.7176 17.8529V9.06537Z" fill="black"></path><path d="M103.389 22.1359C102.521 22.1359 101.748 21.9887 101.071 21.6943C100.393 21.3999 99.8268 20.9878 99.3704 20.4579C98.9143 19.928 98.5683 19.3024 98.3329 18.5811C98.0972 17.8452 97.9795 17.0503 97.9795 16.1966C97.9795 15.3281 98.1266 14.5038 98.4212 13.7237C98.7154 12.9436 99.1129 12.2664 99.6134 11.6924C100.129 11.1036 100.717 10.6399 101.38 10.3014C102.057 9.94812 102.778 9.77148 103.543 9.77148C104.206 9.77148 104.817 9.87453 105.376 10.0806C105.95 10.2867 106.443 10.5884 106.855 10.9859C107.282 11.3833 107.621 11.8838 107.871 12.4872C108.136 13.076 108.29 13.7605 108.335 14.5406H100.452V14.7172C100.452 15.6151 100.563 16.3953 100.784 17.0577C101.019 17.72 101.328 18.272 101.711 18.7136C102.094 19.1405 102.543 19.4643 103.058 19.6851C103.588 19.8911 104.155 19.9942 104.758 19.9942C105.509 19.9942 106.164 19.8764 106.723 19.6409C107.297 19.3907 107.761 19.0816 108.114 18.7136L108.379 18.9344C108.187 19.2582 107.945 19.6115 107.65 19.9942C107.356 20.3622 107.003 20.7081 106.591 21.0319C106.193 21.341 105.722 21.606 105.177 21.8268C104.647 22.0328 104.051 22.1359 103.389 22.1359ZM103.212 10.6326C102.418 10.6326 101.792 10.9049 101.336 11.4495C100.894 11.9942 100.614 12.7301 100.496 13.6575H105.553C105.509 12.5976 105.266 11.8322 104.824 11.3612C104.397 10.8755 103.86 10.6326 103.212 10.6326Z" fill="black"></path><path d="M112.793 22.1366C112.337 22.1366 111.932 22.0703 111.579 21.9379C111.226 21.8201 110.924 21.6214 110.674 21.3417C110.438 21.062 110.254 20.694 110.122 20.2377C110.004 19.7814 109.945 19.2221 109.945 18.5597V10.9424H108.068V9.97089H109.989V8.27077L112.727 6.19531V9.97089H115.62V10.9424H112.727V18.096C112.727 18.5229 112.734 18.8909 112.749 19.2C112.779 19.5091 112.837 19.7667 112.926 19.9728C113.029 20.1641 113.169 20.304 113.345 20.3923C113.537 20.4806 113.802 20.5248 114.14 20.5248C114.435 20.5248 114.722 20.4732 115.001 20.3702C115.281 20.2672 115.59 20.0906 115.929 19.8403L116.15 20.039C115.943 20.2893 115.737 20.5395 115.531 20.7897C115.325 21.04 115.09 21.2681 114.824 21.4742C114.574 21.6655 114.28 21.8201 113.941 21.9379C113.618 22.0703 113.235 22.1366 112.793 22.1366Z" fill="black"></path><path d="M123.904 13.7242L121.232 22.026H119.841L116.53 11.8474C116.368 11.3617 116.191 11.0084 116 10.7876C115.823 10.5521 115.507 10.4123 115.05 10.3681V9.9707H120.857V10.3681C120.445 10.3976 120.136 10.4564 119.93 10.5447C119.724 10.6184 119.584 10.7287 119.51 10.8759C119.452 11.0084 119.437 11.1777 119.466 11.3838C119.51 11.5898 119.577 11.8327 119.665 12.1124L121.475 18.2725L124.081 9.9707H125.538L128.055 18.3167L129.667 13.1722C129.843 12.6128 129.961 12.1565 130.02 11.8033C130.094 11.45 130.101 11.1703 130.042 10.9642C129.983 10.7582 129.858 10.6184 129.667 10.5447C129.49 10.4564 129.24 10.3976 128.916 10.3681V9.9707H132.912V10.3681C132.633 10.3976 132.397 10.4491 132.206 10.5227C132.029 10.5816 131.867 10.692 131.72 10.8538C131.588 11.0011 131.463 11.2071 131.345 11.4721C131.227 11.7223 131.102 12.0462 130.97 12.4436L127.901 22.026H126.487L123.904 13.7242Z" fill="black"></path><path d="M137.948 10.5664C137.447 10.5664 137.02 10.6841 136.667 10.9196C136.314 11.1551 136.019 11.479 135.784 11.8911C135.563 12.3033 135.401 12.789 135.298 13.3483C135.195 13.9077 135.144 14.5112 135.144 15.1588C135.144 15.6887 135.195 16.3143 135.298 17.0356C135.416 17.7421 135.6 18.4192 135.85 19.0669C136.115 19.6998 136.461 20.2371 136.888 20.6787C137.33 21.1202 137.874 21.341 138.522 21.341C139.007 21.341 139.427 21.2233 139.78 20.9878C140.133 20.7375 140.421 20.399 140.641 19.9721C140.862 19.5452 141.024 19.0521 141.127 18.4928C141.23 17.9335 141.282 17.33 141.282 16.6823C141.282 16.1671 141.223 15.5563 141.105 14.8497C141.002 14.1432 140.826 13.4735 140.575 12.8405C140.325 12.2076 139.979 11.6703 139.537 11.2287C139.111 10.7871 138.581 10.5664 137.948 10.5664ZM138.146 9.77148C138.971 9.77148 139.751 9.92605 140.487 10.2352C141.223 10.5443 141.863 10.9711 142.408 11.5158C142.967 12.0604 143.409 12.708 143.732 13.4587C144.056 14.2094 144.218 15.0337 144.218 15.9316C144.218 16.7706 144.064 17.5655 143.754 18.3162C143.46 19.0669 143.048 19.7293 142.518 20.3033C141.988 20.8627 141.355 21.3116 140.619 21.6501C139.898 21.974 139.111 22.1359 138.257 22.1359C137.418 22.1359 136.631 21.9813 135.894 21.6722C135.158 21.3631 134.511 20.9363 133.951 20.3916C133.407 19.8323 132.972 19.1699 132.649 18.4045C132.34 17.6391 132.185 16.8001 132.185 15.8875C132.185 15.0779 132.332 14.3051 132.627 13.5691C132.921 12.8185 133.333 12.1634 133.863 11.6041C134.393 11.0447 135.019 10.6031 135.74 10.2793C136.476 9.94076 137.278 9.77148 138.146 9.77148Z" fill="black"></path><path d="M144.375 21.4514C144.816 21.4073 145.155 21.341 145.39 21.2527C145.626 21.1644 145.795 21.0246 145.898 20.8332C146.016 20.6419 146.082 20.3769 146.097 20.0384C146.126 19.6998 146.141 19.2435 146.141 18.6694V13.7678C146.141 13.2527 146.126 12.8552 146.097 12.5755C146.067 12.2959 145.986 12.0898 145.854 11.9573C145.736 11.8102 145.559 11.7218 145.324 11.6924C145.088 11.6629 144.772 11.6409 144.375 11.6261V11.2508L148.879 9.77148L148.923 12.3106C149.129 12.0457 149.35 11.766 149.585 11.4716C149.835 11.1772 150.093 10.9049 150.358 10.6547C150.638 10.3897 150.939 10.1763 151.263 10.0144C151.587 9.85246 151.926 9.77148 152.279 9.77148C152.794 9.77148 153.221 9.9187 153.56 10.2131C153.913 10.4927 154.089 10.8975 154.089 11.4274C154.089 11.8543 153.927 12.2297 153.604 12.5535C153.295 12.8773 152.89 13.0392 152.389 13.0392C152.198 13.0392 152.043 13.0098 151.926 12.9509C151.823 12.892 151.69 12.7743 151.528 12.5976L150.822 11.7807C150.704 11.6482 150.601 11.582 150.512 11.582C150.351 11.582 150.115 11.7145 149.806 11.9794C149.512 12.2444 149.217 12.5682 148.923 12.9509V18.6694C148.923 19.2877 148.938 19.766 148.967 20.1046C149.011 20.4432 149.114 20.7007 149.276 20.8774C149.453 21.054 149.703 21.1791 150.027 21.2527C150.365 21.3116 150.822 21.3631 151.396 21.4073V21.8489H144.375V21.4514Z" fill="black"></path><path d="M155.277 7.65201C155.277 7.13682 155.262 6.73938 155.233 6.45973C155.204 6.18005 155.123 5.97399 154.99 5.84149C154.872 5.70902 154.696 5.62808 154.46 5.59862C154.225 5.5692 153.908 5.5471 153.511 5.53239V5.15705L158.125 3.67773C158.111 4.26652 158.096 4.9436 158.081 5.70902C158.067 6.47444 158.059 7.42385 158.059 8.55725V18.6696C158.059 19.2436 158.067 19.6999 158.081 20.0385C158.111 20.377 158.177 20.642 158.28 20.8333C158.398 21.0247 158.574 21.1645 158.81 21.2528C159.045 21.3412 159.384 21.4074 159.826 21.4516V21.849H153.511V21.4516C153.952 21.4074 154.291 21.3412 154.526 21.2528C154.762 21.1645 154.931 21.0247 155.034 20.8333C155.152 20.642 155.218 20.377 155.233 20.0385C155.262 19.6999 155.277 19.2436 155.277 18.6696V7.65201ZM161.15 21.4516C161.886 21.4074 162.284 21.2896 162.343 21.0983C162.416 20.8922 162.225 20.5095 161.768 19.9501L158.103 15.4681L161.835 12.2887C162.1 12.0531 162.335 11.825 162.541 11.6042C162.747 11.3687 162.872 11.1626 162.917 10.986C162.961 10.8093 162.895 10.6621 162.718 10.5444C162.556 10.4266 162.24 10.3677 161.768 10.3677V9.97034H166.736V10.3677C166.383 10.3677 166.059 10.4046 165.765 10.4781C165.485 10.5517 165.198 10.6695 164.904 10.8314C164.624 10.9786 164.33 11.17 164.021 11.4055C163.711 11.641 163.373 11.9206 163.005 12.2445L160.576 14.2979L165.323 20.2151C165.662 20.6273 165.993 20.9364 166.317 21.1424C166.641 21.3338 167.045 21.4368 167.531 21.4516V21.849H161.15V21.4516Z" fill="black"></path><path d="M177.521 22.1363C176.432 22.1363 175.431 22.0259 174.519 21.8051C173.621 21.5696 172.848 21.2826 172.2 20.944V15.5567H172.642C172.789 16.5871 173.002 17.4702 173.282 18.2062C173.576 18.9274 173.922 19.5236 174.32 19.9946C174.732 20.4509 175.203 20.7895 175.733 21.0103C176.263 21.2163 176.859 21.3194 177.521 21.3194C178.007 21.3194 178.463 21.2605 178.89 21.1427C179.332 21.025 179.707 20.8483 180.016 20.6128C180.34 20.3626 180.598 20.0535 180.789 19.6855C180.98 19.3175 181.076 18.8833 181.076 18.3828C181.076 18.0148 181.003 17.6836 180.855 17.3892C180.723 17.0949 180.524 16.8299 180.259 16.5944C179.994 16.3442 179.678 16.116 179.31 15.9099C178.956 15.6892 178.559 15.4757 178.117 15.2697L176.153 14.3423C174.975 13.783 174.04 13.128 173.348 12.3773C172.671 11.6266 172.333 10.714 172.333 9.63943C172.333 9.00648 172.472 8.42508 172.752 7.89518C173.032 7.36527 173.422 6.91631 173.922 6.54833C174.423 6.16564 175.004 5.87125 175.667 5.66515C176.329 5.44439 177.05 5.33398 177.83 5.33398C178.228 5.33398 178.647 5.36341 179.089 5.42229C179.53 5.46645 179.965 5.54004 180.392 5.64309C180.818 5.73139 181.223 5.84915 181.606 5.99636C181.989 6.12883 182.313 6.27604 182.577 6.43793V10.9642H182.136C181.827 9.37449 181.304 8.17486 180.568 7.36527C179.832 6.55569 178.912 6.15093 177.808 6.15093C176.91 6.15093 176.175 6.35698 175.601 6.76913C175.041 7.16657 174.761 7.75532 174.761 8.53549C174.761 8.91818 174.82 9.25674 174.938 9.55113C175.056 9.83078 175.218 10.081 175.424 10.3018C175.63 10.5079 175.865 10.6992 176.13 10.8759C176.395 11.0378 176.675 11.185 176.969 11.3174L179.31 12.4214C179.928 12.7158 180.495 13.0176 181.01 13.3267C181.54 13.6211 181.996 13.9596 182.379 14.3423C182.762 14.7103 183.056 15.1298 183.262 15.6008C183.483 16.0571 183.593 16.5871 183.593 17.1905C183.593 17.9118 183.431 18.5742 183.107 19.1777C182.784 19.7812 182.342 20.3037 181.783 20.7453C181.238 21.1869 180.598 21.5328 179.862 21.783C179.126 22.0185 178.345 22.1363 177.521 22.1363Z" fill="black"></path><path d="M188.272 22.1366C187.816 22.1366 187.411 22.0703 187.058 21.9379C186.705 21.8201 186.403 21.6214 186.153 21.3417C185.917 21.062 185.733 20.694 185.601 20.2377C185.483 19.7814 185.424 19.2221 185.424 18.5597V10.9424H183.547V9.97089H185.469V8.27077L188.206 6.19531V9.97089H191.099V10.9424H188.206V18.096C188.206 18.5229 188.214 18.8909 188.228 19.2C188.258 19.5091 188.316 19.7667 188.405 19.9728C188.508 20.1641 188.648 20.304 188.824 20.3923C189.016 20.4806 189.281 20.5248 189.619 20.5248C189.914 20.5248 190.201 20.4732 190.48 20.3702C190.76 20.2672 191.069 20.0906 191.408 19.8403L191.629 20.039C191.423 20.2893 191.216 20.5395 191.01 20.7897C190.804 21.04 190.569 21.2681 190.304 21.4742C190.053 21.6655 189.759 21.8201 189.42 21.9379C189.097 22.0703 188.714 22.1366 188.272 22.1366Z" fill="black"></path><path d="M198.191 20.2154C197.794 20.7747 197.345 21.2384 196.844 21.6063C196.359 21.9596 195.718 22.1362 194.924 22.1362C194.511 22.1362 194.092 22.07 193.665 21.9375C193.253 21.8198 192.87 21.6432 192.517 21.4076C192.178 21.1574 191.899 20.8557 191.678 20.5024C191.457 20.1344 191.347 19.7075 191.347 19.2218C191.347 18.8685 191.428 18.5447 191.589 18.2503C191.752 17.9559 191.987 17.6762 192.296 17.4113C192.605 17.1463 192.988 16.8887 193.444 16.6385C193.9 16.3883 194.416 16.1233 194.99 15.8436C195.284 15.6965 195.689 15.5051 196.204 15.2696C196.734 15.0341 197.411 14.7397 198.235 14.3864V13.7903C198.235 12.6274 198.073 11.8179 197.75 11.3616C197.426 10.8905 196.896 10.655 196.16 10.655C195.689 10.655 195.314 10.736 195.034 10.8979C194.754 11.0598 194.541 11.2806 194.394 11.5603C194.246 11.8252 194.158 12.149 194.129 12.5318C194.099 12.8998 194.099 13.2972 194.129 13.7241H191.634C191.634 13.2677 191.766 12.8041 192.031 12.333C192.296 11.862 192.649 11.4425 193.091 11.0745C193.547 10.6918 194.084 10.3827 194.703 10.1472C195.321 9.9117 195.983 9.79395 196.69 9.79395C197.205 9.79395 197.713 9.85282 198.213 9.97058C198.728 10.0736 199.177 10.2723 199.56 10.5667C199.957 10.8464 200.274 11.2291 200.509 11.7148C200.745 12.2006 200.855 12.8114 200.841 13.5474L200.708 19.2659C200.694 19.8842 200.745 20.2816 200.863 20.4582C200.995 20.6202 201.209 20.7011 201.503 20.7011C201.68 20.7011 201.842 20.6569 201.989 20.5686C202.151 20.4803 202.313 20.3772 202.475 20.2595L202.695 20.4803C202.401 20.8483 202.048 21.2015 201.636 21.5401C201.223 21.8639 200.753 22.0258 200.223 22.0258C200.002 22.0258 199.774 21.9817 199.538 21.8934C199.302 21.805 199.089 21.6873 198.898 21.5401C198.706 21.3782 198.544 21.1868 198.412 20.966C198.28 20.7453 198.206 20.495 198.191 20.2154ZM198.191 15.1813C197.352 15.5198 196.712 15.7995 196.27 16.0203C195.829 16.2411 195.512 16.4104 195.321 16.5281C194.865 16.8078 194.533 17.0948 194.327 17.3892C194.136 17.6689 194.04 18.0221 194.04 18.449C194.04 18.714 194.092 18.9789 194.195 19.2438C194.298 19.4941 194.445 19.7296 194.636 19.9504C194.828 20.1565 195.063 20.3258 195.343 20.4582C195.623 20.576 195.932 20.6349 196.27 20.6349C196.683 20.6349 197.028 20.5465 197.308 20.3699C197.602 20.1933 197.875 19.9357 198.125 19.5971L198.191 15.1813Z" fill="black"></path><path d="M206.527 22.1366C206.07 22.1366 205.665 22.0703 205.312 21.9379C204.959 21.8201 204.657 21.6214 204.407 21.3417C204.172 21.062 203.988 20.694 203.855 20.2377C203.737 19.7814 203.678 19.2221 203.678 18.5597V10.9424H201.802V9.97089H203.723V8.27077L206.461 6.19531V9.97089H209.353V10.9424H206.461V18.096C206.461 18.5229 206.468 18.8909 206.483 19.2C206.512 19.5091 206.571 19.7667 206.659 19.9728C206.762 20.1641 206.902 20.304 207.079 20.3923C207.27 20.4806 207.535 20.5248 207.873 20.5248C208.168 20.5248 208.455 20.4732 208.735 20.3702C209.014 20.2672 209.324 20.0906 209.662 19.8403L209.883 20.039C209.677 20.2893 209.471 20.5395 209.265 20.7897C209.058 21.04 208.823 21.2681 208.558 21.4742C208.308 21.6655 208.013 21.8201 207.675 21.9379C207.351 22.0703 206.968 22.1366 206.527 22.1366Z" fill="black"></path><path d="M215.01 22.1359C214.141 22.1359 213.369 21.9887 212.692 21.6943C212.015 21.3999 211.448 20.9878 210.991 20.4579C210.535 19.928 210.189 19.3024 209.954 18.5811C209.718 17.8452 209.601 17.0503 209.601 16.1966C209.601 15.3281 209.748 14.5038 210.042 13.7237C210.336 12.9436 210.734 12.2664 211.234 11.6924C211.749 11.1036 212.338 10.6399 213.001 10.3014C213.678 9.94812 214.399 9.77148 215.164 9.77148C215.827 9.77148 216.438 9.87453 216.997 10.0806C217.571 10.2867 218.064 10.5884 218.476 10.9859C218.903 11.3833 219.242 11.8838 219.492 12.4872C219.757 13.076 219.912 13.7605 219.956 14.5406H212.073V14.7172C212.073 15.6151 212.184 16.3953 212.404 17.0577C212.64 17.72 212.949 18.272 213.332 18.7136C213.715 19.1405 214.163 19.4643 214.679 19.6851C215.209 19.8911 215.775 19.9942 216.379 19.9942C217.129 19.9942 217.784 19.8764 218.344 19.6409C218.918 19.3907 219.382 19.0816 219.735 18.7136L220 18.9344C219.809 19.2582 219.565 19.6115 219.271 19.9942C218.977 20.3622 218.624 20.7081 218.211 21.0319C217.814 21.341 217.343 21.606 216.798 21.8268C216.268 22.0328 215.672 22.1359 215.01 22.1359ZM214.833 10.6326C214.038 10.6326 213.413 10.9049 212.956 11.4495C212.515 11.9942 212.235 12.7301 212.118 13.6575H217.174C217.129 12.5976 216.887 11.8322 216.445 11.3612C216.018 10.8755 215.481 10.6326 214.833 10.6326Z" fill="black"></path><path fill-rule="evenodd" clip-rule="evenodd" d="M2.6334 1.40142C2.6334 1.92003 2.32125 2.36573 1.87458 2.56089V25.0372C1.87458 25.2157 1.72995 25.3604 1.55145 25.3604H1.18598C1.00748 25.3604 0.862822 25.2157 0.862822 25.0372V2.56088C0.416155 2.36572 0.104004 1.92003 0.104004 1.40142C0.104004 0.702943 0.670228 0.136719 1.36871 0.136719C2.06718 0.136719 2.6334 0.702943 2.6334 1.40142ZM3.68732 19.3495C5.69875 19.004 7.83265 18.7782 11.711 18.7782C13.9531 18.7782 16.1259 19.0148 18.0563 19.2249C19.5994 19.3929 20.9875 19.544 22.1325 19.544C24.5384 19.544 27.6279 19.4328 28.9397 19.2104C29.0884 19.1852 29.1921 19.0541 29.1921 18.9033V2.42423C29.1921 2.22963 29.0215 2.07925 28.8282 2.10212C26.9219 2.32768 24.9133 2.44046 22.1325 2.44046C20.8242 2.44046 19.4678 2.2907 17.9546 2.12363C16.046 1.9129 13.888 1.67463 11.2628 1.67463C8.22741 1.67463 5.88595 1.97865 3.98479 2.22551C3.85065 2.24292 3.71872 2.26005 3.58886 2.27677C3.4274 2.29757 3.30668 2.4349 3.30668 2.5977V19.0299C3.30668 19.2313 3.48882 19.3835 3.68732 19.3495Z" fill="black"></path><path fill-rule="evenodd" clip-rule="evenodd" d="M17.1912 9.69689V5.95211C17.1912 5.95211 15.7448 5.75879 15.1845 5.75879C15.1845 5.75879 15.1772 7.49154 15.1723 9.49682C13.9728 9.41203 12.9157 9.4138 11.971 9.41537C11.8449 9.4156 11.7208 9.4158 11.5986 9.4158V11.6302C12.3223 11.6302 13.6301 11.6302 15.1683 11.7645C15.1666 13.5598 15.1698 15.14 15.1845 15.4593C15.4687 15.524 15.6952 15.5559 15.9944 15.5981C16.285 15.639 16.6442 15.6896 17.1912 15.7893V11.9943C18.7362 12.1771 19.8738 12.2684 21.0115 12.2684V9.97089C19.7792 9.97089 18.8676 9.87958 17.1912 9.69689Z" fill="white"></path></svg>
